<svg id="Group_41" data-name="Group 41" xmlns="http://www.w3.org/2000/svg" width="49.509" height="55.084" viewBox="0 0 49.509 55.084">
                    <path id="Path_265" data-name="Path 265" d="M450.232,378.538q0,9.214,0,18.427c-.006,3.723-1.925,5.857-5.62,6.265a15.841,15.841,0,0,1-1.738.066q-17.411.006-34.823,0a16.035,16.035,0,0,1-2.024-.116,5.584,5.584,0,0,1-5.288-5.966q-.025-12.55-.007-25.1c0-4.062-.01-8.125,0-12.188.012-3.821,2.29-6.15,6.1-6.266,1.984-.06,1.984-.06,2.056-2.108.069-1.958,1.252-3.312,2.912-3.334a2.993,2.993,0,0,1,2.941,3.29c0,2.466.371,2.141,2.347,2.145q8.561.014,17.121,0c1.913,0,1.9-.008,1.991-1.9a6.237,6.237,0,0,1,.208-1.427,2.686,2.686,0,0,1,2.654-2.086,2.728,2.728,0,0,1,2.777,1.932,4.718,4.718,0,0,1,.23,1.419c.084,2,.073,2,2.107,2.066,3.732.124,6.042,2.453,6.052,6.163C450.244,366.059,450.232,372.3,450.232,378.538Zm-24.749,18.888c5.85,0,11.7-.023,17.552.02,1.14.008,1.5-.368,1.5-1.5q-.054-13.345,0-26.69c.006-1.2-.377-1.578-1.576-1.574q-17.479.054-34.958,0c-1.2,0-1.581.375-1.575,1.575q.06,13.273,0,26.545c-.007,1.273.379,1.667,1.653,1.654C413.877,397.394,419.68,397.426,425.482,397.426Z" transform="translate(-400.727 -348.215)" fill="#a8ae91"/>
                    <path id="Path_266" data-name="Path 266" d="M499.5,458.828c0,1.305.028,2.611-.006,3.916a2.767,2.767,0,0,1-2.824,3.03c-2.751.1-5.512.1-8.263-.008a2.722,2.722,0,0,1-2.746-2.952c-.036-2.707-.042-5.415,0-8.121a2.742,2.742,0,0,1,2.816-2.887c2.7-.075,5.415-.072,8.12-.005a2.781,2.781,0,0,1,2.891,2.968C499.528,456.12,499.5,457.474,499.5,458.828Z" transform="translate(-460.99 -421.704)" fill="#a8ae91"/>
                  </svg>