<svg xmlns="http://www.w3.org/2000/svg" width="41.02" height="40.208" viewBox="0 0 41.02 40.208">
  <g id="Group_82" data-name="Group 82" transform="translate(-881 -1179)">
    <g id="Group_63" data-name="Group 63" transform="translate(881 1179)">
      <path id="Path_262" data-name="Path 262" d="M20.51,0A20.31,20.31,0,0,1,41.02,20.1a19.907,19.907,0,0,1-3.455,11.171A20.5,20.5,0,0,1,20.51,40.208,20.31,20.31,0,0,1,0,20.1,20.31,20.31,0,0,1,20.51,0Z" transform="translate(0)" fill="#ebebeb"/>
    </g>
    <g id="Facebook" transform="translate(896.383 1189.255)">
      <path id="Path_1" data-name="Path 1" d="M86.638,19.586V10.663h3.047l.435-3.482H86.638V5.005c0-.979.326-1.741,1.741-1.741h1.85V.109C89.793.109,88.7,0,87.508,0a4.2,4.2,0,0,0-4.461,4.57V7.182H80v3.482h3.047v8.923h3.591Z" transform="translate(-80 0)" fill="#838383" fill-rule="evenodd"/>
    </g>
  </g>
</svg>
