<svg xmlns="http://www.w3.org/2000/svg" width="40" height="40" viewBox="0 0 40 40">
  <g id="Group_84" data-name="Group 84" transform="translate(-960 -1079)">
    <path id="Path_262" data-name="Path 262" d="M20,0A20,20,0,1,1,0,20,20,20,0,0,1,20,0Z" transform="translate(960 1079)" fill="#ebebeb"/>
    <g id="Instagram" transform="translate(971 1089)">
      <path id="Path_3" data-name="Path 3" d="M9.7,1.724a29.736,29.736,0,0,1,3.879.108,5,5,0,0,1,1.832.323,3.784,3.784,0,0,1,1.832,1.832,5,5,0,0,1,.323,1.832c0,.97.108,1.293.108,3.879a29.737,29.737,0,0,1-.108,3.879,5,5,0,0,1-.323,1.832,3.784,3.784,0,0,1-1.832,1.832,5,5,0,0,1-1.832.323c-.97,0-1.293.108-3.879.108a29.737,29.737,0,0,1-3.879-.108,5,5,0,0,1-1.832-.323,3.784,3.784,0,0,1-1.832-1.832,5,5,0,0,1-.323-1.832c0-.97-.108-1.293-.108-3.879a29.736,29.736,0,0,1,.108-3.879,5,5,0,0,1,.323-1.832,3.87,3.87,0,0,1,.754-1.078,1.822,1.822,0,0,1,1.078-.754,5,5,0,0,1,1.832-.323A29.736,29.736,0,0,1,9.7,1.724M9.7,0A31.839,31.839,0,0,0,5.711.108,6.652,6.652,0,0,0,3.34.539,4.218,4.218,0,0,0,1.616,1.616,4.218,4.218,0,0,0,.539,3.34,4.91,4.91,0,0,0,.108,5.711,31.839,31.839,0,0,0,0,9.7a31.839,31.839,0,0,0,.108,3.987,6.652,6.652,0,0,0,.431,2.371A4.218,4.218,0,0,0,1.616,17.78,4.218,4.218,0,0,0,3.34,18.857a6.652,6.652,0,0,0,2.371.431A31.839,31.839,0,0,0,9.7,19.4a31.839,31.839,0,0,0,3.987-.108,6.653,6.653,0,0,0,2.371-.431,4.521,4.521,0,0,0,2.8-2.8,6.652,6.652,0,0,0,.431-2.371c0-1.078.108-1.4.108-3.987a31.839,31.839,0,0,0-.108-3.987,6.653,6.653,0,0,0-.431-2.371A4.218,4.218,0,0,0,17.78,1.616,4.218,4.218,0,0,0,16.056.539,6.652,6.652,0,0,0,13.685.108,31.839,31.839,0,0,0,9.7,0m0,4.741A4.877,4.877,0,0,0,4.741,9.7,4.957,4.957,0,1,0,9.7,4.741m0,8.189A3.175,3.175,0,0,1,6.465,9.7,3.175,3.175,0,0,1,9.7,6.465,3.175,3.175,0,0,1,12.931,9.7,3.175,3.175,0,0,1,9.7,12.931M14.87,3.34a1.185,1.185,0,1,0,1.185,1.185A1.2,1.2,0,0,0,14.87,3.34" fill="#838383" stroke="#838383" stroke-width="0.5" fill-rule="evenodd"/>
    </g>
  </g>
</svg>
