<svg id="Group_42" data-name="Group 42" xmlns="http://www.w3.org/2000/svg" width="60.424" height="60.473" viewBox="0 0 60.424 60.473">
                    <path id="Path_267" data-name="Path 267" d="M146.937,714.047a12.126,12.126,0,0,1,1.456-5.714,57.226,57.226,0,0,1,8.4-12.357,2.4,2.4,0,0,1,3.8-.08c3.611,4.213,6.978,8.615,9.057,13.817a11.494,11.494,0,0,1-7.564,15.466,11.83,11.83,0,0,1-14.939-8.92A20.347,20.347,0,0,1,146.937,714.047Z" transform="translate(-128.76 -680.622)" fill="#a8ae91"/>
                    <path id="Path_268" data-name="Path 268" d="M113.091,747.436a23.489,23.489,0,0,0,11.879,4.916,24.288,24.288,0,0,0,24.557-12.781,24.738,24.738,0,0,0,2.385-16.324c-.348-2.108.493-3.536,2.252-3.864,1.668-.311,3.081.884,3.446,2.915a30.171,30.171,0,0,1-25.1,35.658,29.037,29.037,0,0,1-22.224-5.388c-.89-.632-1.4-1.044-1.442.57a2.708,2.708,0,0,1-2.735,2.49,2.766,2.766,0,0,1-2.846-2.572c-.112-3.041-.113-6.091-.016-9.132a2.668,2.668,0,0,1,2.976-2.365q3.768.053,7.537.09c2.115.024,3.474,1.152,3.456,2.874-.017,1.669-1.294,2.747-3.354,2.833C113.724,747.362,113.581,747.385,113.091,747.436Z" transform="translate(-97.705 -697.895)" fill="#a8ae91"/>
                    <path id="Path_269" data-name="Path 269" d="M129.438,656.351a22.865,22.865,0,0,0-9.8-4.589,24.4,24.4,0,0,0-28.855,18.3,25.959,25.959,0,0,0-.323,9.5c.057.431.126.862.146,1.3a2.874,2.874,0,0,1-2.508,3.184,2.916,2.916,0,0,1-3.184-2.536,28.926,28.926,0,0,1,.045-11.942,30.273,30.273,0,0,1,26.292-23.908,29.588,29.588,0,0,1,20.829,5.432c1.307.91,1.294.929,1.553-.57a2.874,2.874,0,0,1,2.728-2.374,2.752,2.752,0,0,1,2.87,2.54c.115,2.992.115,5.995,0,8.987a2.681,2.681,0,0,1-2.933,2.438q-3.988.053-7.977,0a2.9,2.9,0,0,1-3.038-2.847,2.929,2.929,0,0,1,2.9-2.84C128.508,656.4,128.831,656.385,129.438,656.351Z" transform="translate(-84.31 -645.455)" fill="#a8ae91"/>
                  </svg>