<svg xmlns="http://www.w3.org/2000/svg" width="54.979" height="49.546" viewBox="0 0 54.979 49.546">
                    <path id="Path_276" data-name="Path 276" d="M146.791,79.232a33.688,33.688,0,0,0-4.5-1.109c-4.488-.846-8.857-.622-12.95,1.666-3.9,2.18-6.432,6.513-5.252,10.365.8,2.6-.082,3.969-1.717,5.51-.637.6-.986.792-1.538-.021a9.524,9.524,0,0,0-2.2-2.291,1.179,1.179,0,0,1-.434-1.494,9.983,9.983,0,0,0-5.321-12.273c-5.728-2.96-11.55-2.121-17.326-.224a2.707,2.707,0,0,0-1.038,4.357,22.43,22.43,0,0,1,3.308,6.248,26.765,26.765,0,0,0,2.878,6.159,7.861,7.861,0,0,0,10.181,2.914,14.447,14.447,0,0,0,2.411-1.319,1.393,1.393,0,0,1,1.824.1,7.587,7.587,0,0,1,3.195,5.46,2.046,2.046,0,0,1-.085,1.169.938.938,0,0,1-.638.484,5.38,5.38,0,0,1-.8.049c-.592,0-1.185,0-1.777,0-2.646-.03-5.294,0-7.941,0-.725,0-1.454-.03-2.175.024a3.326,3.326,0,0,0-1.492.462,2.6,2.6,0,0,0-1.326,2.156,2.553,2.553,0,0,0,1.261,2.661,3.28,3.28,0,0,0,.665.3,2.11,2.11,0,0,1,1.111,1.748c.687,3.9,1.453,7.787,2.161,11.684.423,2.326,1.35,3.162,3.72,3.165q5.154.008,10.308,0t10.308,0c2.371,0,3.3-.839,3.72-3.165.708-3.9,1.474-7.784,2.161-11.684a2.11,2.11,0,0,1,1.111-1.748,3.28,3.28,0,0,0,.665-.3,2.553,2.553,0,0,0,1.261-2.661,2.6,2.6,0,0,0-1.326-2.156,3.326,3.326,0,0,0-1.492-.462c-.721-.055-1.45-.024-2.175-.024-2.647,0-5.295-.034-7.941,0-.592,0-1.184,0-1.777,0a5.38,5.38,0,0,1-.8-.049.938.938,0,0,1-.638-.484h-.055a2.8,2.8,0,0,1,.227-1.287,12.863,12.863,0,0,1,2.763-4.208c1.009-1.186,1.837-1.346,3.275-.5,4.7,2.752,9.256,1.436,11.942-3.319a31.922,31.922,0,0,0,1.789-3.959,27.881,27.881,0,0,1,3.87-7.583A2.736,2.736,0,0,0,146.791,79.232Z" transform="translate(-93.828 -77.644)" fill="#a8ae91"/>
                  </svg>