<svg xmlns="http://www.w3.org/2000/svg" width="59.765" height="47.545" viewBox="0 0 59.765 47.545">
                    <path id="Path_264" data-name="Path 264" d="M724.1,1018.67a5.484,5.484,0,0,0-3.563-5.532c-5.657-2.477-11.292-5-16.932-7.516a5.292,5.292,0,0,0-4.511-.013l-.5.223-3.568,1.592-1.784.8-.892.4a1.9,1.9,0,0,0-.646.343c-.306.356,0,.693.173,1.025a1.766,1.766,0,0,0,.592.649,12.216,12.216,0,0,1,6.155,6.72,11.741,11.741,0,0,1,.48,1.68,6.235,6.235,0,0,1,.232,1.517c-.048.867-.13,1.732-.237,2.593-.052.417-.117.833-.151,1.249-.028.346-.254.641-.193.995.064.374.544.7.784.971a12.3,12.3,0,0,1,.906,1.15,12.044,12.044,0,0,1,1.327,2.483,11.738,11.738,0,0,1,.8,4.682,11.893,11.893,0,0,1-.73,3.712,12.329,12.329,0,0,1-.787,1.719,11.685,11.685,0,0,1-2.063,2.7,12.252,12.252,0,0,1-8.539,3.4q-.714.007-1.427.009c-.351,0-.938.123-1.224-.125a1.251,1.251,0,0,1-.258-.353,2.723,2.723,0,0,1-.088-1.218v-1.774a2.048,2.048,0,0,1,.094-1.043c.258-.43.938-.289,1.353-.29q.758,0,1.5-.009a8.1,8.1,0,0,0,3.108-.629,6.907,6.907,0,0,0,3.822-4.05,7.03,7.03,0,0,0-2.139-7.91,3.8,3.8,0,0,1-1.158-4.643,7.092,7.092,0,0,0-.771-6.818,7.84,7.84,0,0,0-2.923-2.412,6.458,6.458,0,0,1-2.718-2.717,10.965,10.965,0,0,0-.725-1.188,6.654,6.654,0,0,0-5.812-3.022h-.035c-2.919,0-5,1.326-6.543,4.171a7,7,0,0,1-2.76,2.779c-2.38,1.246-3.666,2.831-3.93,4.848a18.139,18.139,0,0,0,.136,4.094c.049.468.1.946.14,1.432a2.517,2.517,0,0,1-.747,3.094c-2.739,2.3-3.654,5.22-2.579,8.23a7.268,7.268,0,0,0,7.19,4.742c1.3.007,2.591.005,3.929,0,.6,0,1.106.145,1.159.832.04.516,0,1.05,0,1.568v7.648c0,.3-.046.734.2.965a.683.683,0,0,0,.111.082,1.261,1.261,0,0,0,.676.135h.91l1.761,0h7.162c4.48,0,8.963.016,13.444.016q8.533,0,17.066,0c3.623-.007,5.7-2.09,5.707-5.715C724.1,1037.513,724.074,1028.092,724.1,1018.67Zm-9.428,25.241a1.2,1.2,0,0,1-1.193,1.193H710.8a1.2,1.2,0,0,1-1.193-1.193v-2.684a1.2,1.2,0,0,1,1.193-1.193h2.684a1.2,1.2,0,0,1,1.193,1.193Zm0-10.139a1.2,1.2,0,0,1-1.193,1.193H710.8a1.2,1.2,0,0,1-1.193-1.193v-2.684a1.2,1.2,0,0,1,1.193-1.193h2.684a1.2,1.2,0,0,1,1.193,1.193Zm0-10.139a1.2,1.2,0,0,1-1.193,1.193H710.8a1.2,1.2,0,0,1-1.193-1.193v-2.684a1.2,1.2,0,0,1,1.193-1.193h2.684a1.2,1.2,0,0,1,1.193,1.193Z" transform="translate(-664.339 -1005.111)" fill="#a8ae91"/>
                  </svg>