<svg xmlns="http://www.w3.org/2000/svg" width="52.752" height="60.122" viewBox="0 0 52.752 60.122">
                    <g id="Group_44" data-name="Group 44" transform="translate(0 -5)">
                      <g id="Group_31" data-name="Group 31" transform="translate(0 12.253)">
                        <path id="Path_271" data-name="Path 271" d="M-231.186,731.354c-4.007-.121-8.982.246-13.941-.161a5.475,5.475,0,0,1-4.424-8.207,48.415,48.415,0,0,1,2.56-4.147,2.082,2.082,0,0,0,.221-2.194q-3.854-9.107-7.619-18.251a1.639,1.639,0,0,0-1.88-1.224,7.742,7.742,0,0,1-1.531-.019,2.683,2.683,0,0,1-2.534-2.65A2.561,2.561,0,0,1-258,691.7a22.192,22.192,0,0,1,4.865-.109,3.269,3.269,0,0,1,2.934,2.388c2.7,6.569,5.474,13.109,8.155,19.687A2.061,2.061,0,0,0-239.8,715.2c5.387-.064,10.775-.049,16.162-.008a2.075,2.075,0,0,0,2.095-1.216c2.6-4.769,5.256-9.51,7.9-14.258a17.707,17.707,0,0,1,1.064-1.8,2.655,2.655,0,0,1,3.583-.788,2.594,2.594,0,0,1,1.139,3.467c-1.13,2.236-2.378,4.414-3.591,6.608-1.91,3.454-3.857,6.888-5.739,10.357a5.852,5.852,0,0,1-5.56,3.261c-5.805-.006-11.611.021-17.416-.02a2.217,2.217,0,0,0-2.354,1.288,26.44,26.44,0,0,1-1.383,2.254c-.774,1.273-.731,1.364.726,1.371,2.647.013,5.295,0,7.942,0q9.335,0,18.671,0a5.028,5.028,0,0,1,1.79.182,2.7,2.7,0,0,1,1.876,2.661,2.662,2.662,0,0,1-2.15,2.578,12.674,12.674,0,0,1-2.354.2C-221.68,731.363-225.953,731.354-231.186,731.354Z" transform="translate(260.336 -691.514)" fill="#a8ae91"/>
                        <path id="Path_272" data-name="Path 272" d="M-212.3,847.8a5.381,5.381,0,0,1-5.343,5.43,5.473,5.473,0,0,1-5.464-5.353,5.539,5.539,0,0,1,5.377-5.458A5.455,5.455,0,0,1-212.3,847.8Z" transform="translate(233.486 -800.365)" fill="#a8ae91"/>
                        <path id="Path_273" data-name="Path 273" d="M-123.532,853.242a5.519,5.519,0,0,1-5.423-5.436,5.551,5.551,0,0,1,5.5-5.37,5.533,5.533,0,0,1,5.345,5.384A5.505,5.505,0,0,1-123.532,853.242Z" transform="translate(165.57 -800.374)" fill="#a8ae91"/>
                      </g>
                      <g id="Group_32" data-name="Group 32" transform="translate(18.163 5)">
                        <path id="Path_274" data-name="Path 274" d="M-175.79,666.03c-.219.476-.5.913-.765,1.365a2.41,2.41,0,0,1-.329.473,1.618,1.618,0,0,1-.684.383,1.3,1.3,0,0,1-.391.014.647.647,0,0,1-.374-.09,1.182,1.182,0,0,1-.3-.386,11.026,11.026,0,0,1-.5-1.258c-.272-.649-.554-1.3-.876-1.922a22.415,22.415,0,0,0-2.559-3.951,19.536,19.536,0,0,0-1.6-1.735,4.482,4.482,0,0,0-1.105-.836.158.158,0,0,0-.108-.025c-.373.1.189.846.261.989q.319.635.626,1.275c.409.854.8,1.718,1.158,2.594a31.407,31.407,0,0,1,1.59,4.885,22.066,22.066,0,0,1,.582,5.136c-.012,1.336.047,3.127-.878,4.212a.769.769,0,0,1-.353.262,3.317,3.317,0,0,1-3.086-.815c-.551-.615-.366-1.266-.191-2,.253-1.064,1.024-3.263-.831-3.171a10.043,10.043,0,0,1-2.938-.024,6.705,6.705,0,0,1-2.719-1.383c-2.258-1.855-2.909-4.4-2.993-7.173-.014-.462-.011-.925.006-1.387.018-.5.051-.99.1-1.484q.071-.778.179-1.552.111-.8.256-1.592t.327-1.6q.179-.8.392-1.586t.45-1.539q.234-.738.5-1.465A4.3,4.3,0,0,1-191.9,648.8a1.88,1.88,0,0,1,1.027-.523,5.4,5.4,0,0,1,2.152.353q.787.221,1.563.478t1.526.557q.752.3,1.483.648t1.434.75q.706.4,1.379.863t1.318.988q.65.534,1.251,1.125.193.189.38.385A11.14,11.14,0,0,1-175,662.617,8.712,8.712,0,0,1-175.79,666.03Z" transform="translate(195.164 -648.258)" fill="#a8ae91"/>
                      </g>
                    </g>
                  </svg>