<svg xmlns="http://www.w3.org/2000/svg" width="40" height="40" viewBox="0 0 40 40">
  <g id="Group_83" data-name="Group 83" transform="translate(-1010 -1079)">
    <path id="Path_283" data-name="Path 283" d="M20,0A20,20,0,1,1,0,20,20,20,0,0,1,20,0Z" transform="translate(1010 1079)" fill="#ebebeb"/>
    <g id="Attachment" transform="translate(1020.119 1089.378)">
      <rect id="Rectangle_314" data-name="Rectangle 314" width="20" height="20" transform="translate(-0.119 -0.378)" fill="none"/>
      <path id="Path_125" data-name="Path 125" d="M6.894,19.7a6.211,6.211,0,0,1-4.6-1.97A6.341,6.341,0,0,1,0,12.8a6.587,6.587,0,0,1,.492-2.462,5.676,5.676,0,0,1,1.149-1.97L4.924,5.089A3.956,3.956,0,0,1,7.879,3.94,4.485,4.485,0,0,1,11,5.253a4.215,4.215,0,0,1,1.313,3.283,3.956,3.956,0,0,1-1.149,2.955L9.357,13.132a1.254,1.254,0,0,1-.821.328,1.76,1.76,0,0,1-.985-.328,2.333,2.333,0,0,1-.328-.985,2.333,2.333,0,0,1,.328-.985L9.357,9.357a.993.993,0,0,0,.492-.985,2.005,2.005,0,0,0-.657-1.477,1.913,1.913,0,0,0-1.149-.328,2.372,2.372,0,0,0-1.149.328L3.447,10.177A4.542,4.542,0,0,0,2.626,12.8,4.8,4.8,0,0,0,3.94,15.923a3.406,3.406,0,0,0,1.641.985,2.838,2.838,0,0,0,1.641.164c.492-.164.985-.164,1.313-.328a3.434,3.434,0,0,0,.985-.657l6.566-6.566A3.6,3.6,0,0,0,17.236,6.73a4.3,4.3,0,0,0-1.477-3.119,7.31,7.31,0,0,0-1.97-.985H12.311a3.476,3.476,0,0,0-1.149.492,2.082,2.082,0,0,1-.985.164,1.091,1.091,0,0,1-.821-.657c-.164-.164-.164-.492-.164-.985A2.882,2.882,0,0,1,9.849.821,6.465,6.465,0,0,1,13.132,0,6.077,6.077,0,0,1,17.4,1.641a6.927,6.927,0,0,1,2.3,4.924,6.424,6.424,0,0,1-1.806,4.76l-6.566,6.566A6.062,6.062,0,0,1,6.894,19.7Z" transform="translate(-0.06 -0.018)" fill="#838383"/>
    </g>
  </g>
</svg>
