<?xml version="1.0" encoding="utf-8"?>
<!-- Generator: Adobe Illustrator 24.3.0, SVG Export Plug-In . SVG Version: 6.00 Build 0)  -->
<svg version="1.1" id="圖層_1" xmlns="http://www.w3.org/2000/svg" xmlns:xlink="http://www.w3.org/1999/xlink" x="0px" y="0px"
	 viewBox="0 0 40 40" style="enable-background:new 0 0 40 40;" xml:space="preserve">
<style type="text/css">
	.st0{fill:#EBEBEB;}
	.st1{fill:#838383;}
</style>
<g id="Group_84">
	<path id="Path_262" class="st0" d="M20,0c11,0,20,9,20,20s-9,20-20,20S0,31,0,20S9,0,20,0z"/>
</g>
<g id="_x34_01BUy.tif">
	<g>
		<path class="st1" d="M31.5,18.1c0,0.1,0,0.2,0,0.4c0,0.3-0.1,0.6-0.1,0.9c-0.2,1.6-0.9,2.9-1.9,4.1c-1,1.2-2.2,2.3-3.4,3.2
			c-2,1.6-4.1,3-6.4,4.2c-0.3,0.1-0.6,0.3-0.8,0c-0.3-0.2-0.1-0.5,0-0.8c0.1-0.6,0.3-1.2,0.4-1.9c0.1-0.4-0.2-0.6-0.6-0.6
			c-1.3-0.1-2.5-0.4-3.7-0.8c-2.2-0.9-4.1-2.2-5.4-4.3c-1.3-2.2-1.6-4.6-0.7-7c0.9-2.3,2.5-3.9,4.6-5c2.4-1.3,5.1-1.8,7.8-1.5
			c2.1,0.2,4,0.8,5.8,2c2.1,1.4,3.6,3.1,4.2,5.6C31.4,17.1,31.5,17.6,31.5,18.1z M21.9,18.6C21.9,18.6,21.9,18.7,21.9,18.6
			c-0.1,0-0.2-0.1-0.2-0.1c-0.7-0.9-1.4-1.9-2.1-2.8c-0.2-0.3-0.5-0.4-0.8-0.3c-0.3,0.1-0.4,0.3-0.4,0.7c0,1.4,0,2.9,0,4.3
			c0,0.4,0.2,0.7,0.6,0.7c0.4,0,0.6-0.3,0.6-0.7c0-0.6,0-1.1,0-1.7c0-0.3,0-0.6,0-1c0.1,0.1,0.1,0.1,0.2,0.2
			c0.7,0.9,1.4,1.9,2.1,2.8c0.2,0.3,0.5,0.4,0.8,0.4c0.3-0.1,0.4-0.3,0.4-0.7c0-1.4,0-2.9,0-4.3c0-0.4-0.2-0.7-0.6-0.7
			c-0.4,0-0.6,0.3-0.6,0.7C22,16.9,21.9,17.8,21.9,18.6z M25.2,19.9c0-0.4,0-0.7,0-1.1c0.6,0,1.1,0,1.7,0c0.3,0,0.5-0.1,0.6-0.4
			c0.1-0.2,0-0.5-0.1-0.6c-0.1-0.1-0.4-0.2-0.5-0.2c-0.5,0-1,0-1.5,0c0-0.4,0-0.7,0-1.1c0.5,0,1.1,0,1.6,0c0.4,0,0.7-0.3,0.7-0.6
			c0-0.4-0.3-0.6-0.7-0.6c-0.7,0-1.5,0-2.2,0c-0.4,0-0.6,0.3-0.6,0.7c0,1.5,0,3,0,4.5c0,0.4,0.2,0.7,0.7,0.7c0.7,0,1.5,0,2.2,0
			c0.1,0,0.2,0,0.3-0.1c0.3-0.1,0.4-0.4,0.3-0.7c-0.1-0.3-0.3-0.5-0.6-0.5C26.3,19.9,25.8,19.9,25.2,19.9z M13.6,19.9
			c0-0.2,0-0.3,0-0.4c0-1.2,0-2.3,0-3.5c0-0.4-0.3-0.7-0.6-0.7c-0.4,0-0.6,0.3-0.6,0.7c0,1.5,0,2.9,0,4.4c0,0.5,0.2,0.7,0.7,0.7
			c0.7,0,1.4,0,2.2,0c0.1,0,0.2,0,0.3,0c0.3-0.1,0.4-0.4,0.4-0.6c0-0.3-0.3-0.5-0.6-0.5C14.7,19.9,14.2,19.9,13.6,19.9z M16.4,18.2
			C16.4,18.2,16.4,18.2,16.4,18.2c0,0.7,0,1.4,0,2.1c0,0.4,0.2,0.7,0.6,0.7c0.4,0,0.6-0.3,0.6-0.7c0-1.5,0-2.9,0-4.4
			c0-0.1,0-0.3-0.1-0.4c-0.1-0.2-0.4-0.3-0.7-0.3c-0.3,0.1-0.4,0.3-0.4,0.6C16.4,16.8,16.4,17.5,16.4,18.2z"/>
	</g>
</g>
</svg>
