<svg id="參考線" xmlns="http://www.w3.org/2000/svg" viewBox="0 0 17.41 17.42"><defs><style>.cls-1{fill:#494949;}</style></defs><g id="Component_133_2" data-name="Component 133 2"><g id="Group_330" data-name="Group 330"><path id="Path_390" data-name="Path 390" class="cls-1" d="M10.33,12.62a6.8,6.8,0,1,1,2.27-2.26.7.7,0,0,1,.16.1l4.11,4.1a1.64,1.64,0,0,1-1.36,2.84,1.57,1.57,0,0,1-.69-.29,2.89,2.89,0,0,1-.32-.29l-4.06-4.06A.76.76,0,0,1,10.33,12.62ZM6.79,11.43A4.64,4.64,0,1,0,2.15,6.79a4.63,4.63,0,0,0,4.64,4.64Z"/></g></g></svg>