<svg id="圖層_1" data-name="圖層 1" xmlns="http://www.w3.org/2000/svg" viewBox="0 0 18.12 18.12"><defs><style>.cls-1{fill:#838383;}</style></defs><g id="Path_99" data-name="Path 99"><path class="cls-1" d="M17.75,16.21l-3.61-3.6A7.47,7.47,0,0,0,15.68,8,7.61,7.61,0,0,0,8.13.37H8A7.6,7.6,0,0,0,.38,7.92V8a7.59,7.59,0,0,0,7.54,7.65H8a7.44,7.44,0,0,0,4.59-1.53l3.61,3.61ZM2.56,8A5.41,5.41,0,0,1,7.92,2.56H8a5.42,5.42,0,0,1,5.47,5.36V8a5.41,5.41,0,0,1-5.36,5.46H8A5.41,5.41,0,0,1,2.56,8.13Z"/><path class="cls-1" d="M18,16l-3.6-3.61.06.46a8.12,8.12,0,0,0,.07-9.5A8.13,8.13,0,0,0,6.74.1,8,8,0,0,0,.32,5.73,8.15,8.15,0,0,0,2.63,14a8.13,8.13,0,0,0,10.17.48l-.45-.06L16,18a.37.37,0,0,0,.53,0L18,16.48a.38.38,0,0,0-.53-.53L16,17.48h.53l-3.6-3.6a.38.38,0,0,0-.46-.06,7.4,7.4,0,0,1-8.55.2,7.35,7.35,0,0,1-3-7.18A7.36,7.36,0,0,1,13.22,2.9a7.37,7.37,0,0,1,.6,9.52.36.36,0,0,0,.06.45l3.6,3.61A.38.38,0,0,0,18,16Z"/><path class="cls-1" d="M2.94,8a5.1,5.1,0,0,1,3.34-4.8,5.21,5.21,0,0,1,5.66,1.51,5.2,5.2,0,0,1,.49,5.88A5.15,5.15,0,0,1,7,13,5.1,5.1,0,0,1,2.94,8a.38.38,0,0,0-.75,0A5.84,5.84,0,0,0,6,13.5a5.91,5.91,0,0,0,6.55-1.74A6,6,0,0,0,13.06,5,5.92,5.92,0,0,0,6.93,2.28,5.83,5.83,0,0,0,2.19,8,.38.38,0,0,0,2.94,8Z"/></g></svg>